<?xml version="1.0" encoding="UTF-8" standalone="no"?>
<svg
   xmlns:dc="http://purl.org/dc/elements/1.1/"
   xmlns:cc="http://creativecommons.org/ns#"
   xmlns:rdf="http://www.w3.org/1999/02/22-rdf-syntax-ns#"
   xmlns:svg="http://www.w3.org/2000/svg"
   xmlns="http://www.w3.org/2000/svg"
   xmlns:sodipodi="http://sodipodi.sourceforge.net/DTD/sodipodi-0.dtd"
   xmlns:inkscape="http://www.inkscape.org/namespaces/inkscape"
   version="1.0"
   width="8000.000000pt"
   height="9622.000000pt"
   viewBox="0 0 8000.000000 9622.000000"
   preserveAspectRatio="xMidYMid meet"
   id="svg3458"
   inkscape:version="0.91 r13725"
   sodipodi:docname="Sumobot-jr-3mm-motorized.svg">
  <defs
     id="defs3540" />
  <sodipodi:namedview
     pagecolor="#ffffff"
     bordercolor="#666666"
     borderopacity="1"
     objecttolerance="10"
     gridtolerance="10"
     guidetolerance="10"
     inkscape:pageopacity="0"
     inkscape:pageshadow="2"
     inkscape:window-width="1066"
     inkscape:window-height="604"
     id="namedview3538"
     showgrid="false"
     inkscape:document-units="mm"
     inkscape:zoom="0.0196217"
     inkscape:cx="5000"
     inkscape:cy="6013.75"
     inkscape:window-x="144"
     inkscape:window-y="98"
     inkscape:window-maximized="0"
     inkscape:current-layer="svg3458" />
  <metadata
     id="metadata3460">
Created by potrace 1.13, written by Peter Selinger 2001-2015
<rdf:RDF>
  <cc:Work
     rdf:about="">
    <dc:format>image/svg+xml</dc:format>
    <dc:type
       rdf:resource="http://purl.org/dc/dcmitype/StillImage" />
    <dc:title></dc:title>
  </cc:Work>
</rdf:RDF>
</metadata>
  <g
     transform="translate(0.000000,9622.000000) scale(0.100000,-0.100000)"
     fill="#000000"
     stroke="none"
     id="g3462">
    <path
       d="M33050 68746 l0 -17856 9530 0 9530 0 -2 13460 -3 13460 -140 66 c-77 37 -156 72 -175 79 -19 7 -84 35 -145 63 -98 45 -204 94 -575 262 -275 124 -461 210 -520 240 -36 18 -114 54 -175 80 -101 44 -288 126 -410 180 -27 12 -124 57 -215 100 -91 43 -216 102 -277 129 -255 115 -346 156 -508 231 -93 43 -204 92 -245 109 -41 16 -158 69 -260 117 -177 83 -269 125 -680 309 -102 45 -251 114 -332 153 -81 39 -216 101 -300 138 -84 36 -189 85 -233 107 -44 22 -226 104 -405 182 -179 79 -392 176 -475 215 -82 40 -208 99 -280 130 -71 32 -206 93 -300 135 -93 42 -233 105 -310 140 -77 34 -180 82 -230 105 -93 44 -292 133 -500 225 -66 29 -220 100 -342 159 -121 58 -224 106 -227 106 -3 0 -88 38 -188 84 -101 46 -194 87 -208 91 -14 4 -82 36 -152 71 -70 35 -165 79 -210 98 -46 19 -137 59 -203 89 -66 30 -167 76 -225 102 -58 26 -172 79 -255 117 -82 39 -186 86 -230 105 -44 19 -136 61 -205 93 -69 32 -192 89 -275 125 -82 37 -154 71 -159 76 -6 5 -18 9 -28 9 -10 0 -18 3 -18 6 0 8 41 96 132 284 44 91 95 200 113 242 19 42 43 94 54 115 11 21 38 76 59 123 22 47 60 128 85 181 25 52 55 120 67 150 12 29 27 61 34 69 7 8 32 58 55 110 58 128 97 212 137 292 19 37 34 72 34 78 0 6 -25 22 -55 35 -72 32 -337 158 -575 272 -74 36 -196 92 -270 125 -74 33 -155 71 -180 84 -25 13 -171 82 -325 153 -154 71 -354 165 -445 209 -91 44 -230 110 -310 147 -80 36 -159 75 -177 85 -18 10 -67 34 -110 53 -88 39 -521 241 -688 321 -143 69 -207 98 -209 94 -2 -3 -27 -55 -111 -233 -18 -38 -50 -108 -71 -155 -20 -47 -43 -92 -50 -100 -6 -8 -24 -44 -39 -80 -15 -36 -42 -96 -60 -135 -19 -38 -41 -86 -49 -105 -9 -19 -20 -42 -25 -50 -13 -21 -94 -195 -127 -272 -14 -35 -36 -83 -49 -108 -34 -65 -149 -307 -173 -362 l-21 -48 -34 15 c-20 8 -75 35 -124 59 -49 24 -131 63 -183 86 -52 23 -99 45 -105 50 -5 5 -98 49 -205 98 -107 49 -274 128 -370 175 -96 47 -218 103 -270 125 -52 22 -180 82 -285 132 -104 51 -211 100 -237 111 -26 10 -139 63 -250 117 -112 55 -255 123 -318 152 -63 28 -187 87 -276 131 -88 43 -183 87 -210 97 -27 11 -177 81 -334 157 -157 75 -314 148 -350 162 -36 13 -89 38 -119 55 -30 16 -106 54 -170 82 -64 29 -267 124 -451 210 -184 87 -402 189 -485 228 -82 39 -184 87 -225 107 -41 20 -78 38 -82 39 -5 2 -8 -8031 -8 -17852z m93 17800 c77 -36 183 -86 707 -332 184 -86 387 -181 451 -210 64 -28 140 -66 170 -82 30 -17 83 -42 119 -55 36 -14 193 -87 350 -162 157 -76 307 -146 334 -157 27 -10 122 -54 210 -97 89 -44 213 -103 276 -131 63 -29 206 -97 318 -152 111 -54 224 -107 250 -117 26 -11 133 -60 237 -111 105 -50 233 -110 285 -132 52 -22 174 -78 270 -125 96 -47 263 -126 370 -175 107 -49 200 -93 205 -98 6 -5 51 -26 100 -48 50 -22 146 -67 215 -101 69 -33 128 -61 131 -61 4 0 17 24 29 53 24 56 137 293 175 367 13 25 35 73 49 108 33 77 114 251 127 272 5 8 16 31 25 50 8 19 30 67 49 105 18 39 45 99 60 135 15 36 33 72 39 80 7 8 30 53 50 100 45 102 93 204 143 304 l37 74 45 -20 c25 -12 96 -45 156 -74 167 -80 600 -282 688 -321 43 -19 92 -43 110 -53 18 -10 97 -49 177 -85 80 -37 219 -103 310 -147 91 -44 291 -138 445 -209 154 -71 300 -140 325 -153 25 -13 106 -51 180 -84 74 -33 196 -89 270 -125 261 -125 546 -260 588 -276 37 -16 37 -21 -8 -111 -35 -71 -77 -161 -131 -280 -23 -52 -48 -102 -55 -110 -7 -8 -22 -40 -34 -69 -12 -30 -42 -98 -67 -150 -25 -53 -63 -134 -85 -181 -21 -47 -48 -102 -59 -123 -11 -21 -35 -73 -54 -115 -18 -42 -69 -151 -113 -242 -144 -297 -145 -300 -103 -300 9 0 21 -4 27 -9 5 -5 77 -39 159 -76 83 -36 206 -93 275 -125 69 -32 161 -74 205 -93 44 -19 148 -66 230 -105 83 -38 197 -91 255 -117 58 -26 159 -72 225 -102 66 -30 157 -70 203 -89 45 -19 140 -63 210 -98 70 -35 138 -67 152 -71 14 -4 107 -45 208 -91 100 -46 185 -84 188 -84 3 0 106 -48 227 -106 122 -59 276 -130 342 -159 208 -92 407 -181 500 -225 50 -23 153 -71 230 -105 77 -35 217 -98 310 -140 94 -42 229 -103 300 -135 72 -31 198 -90 280 -130 83 -39 296 -136 475 -215 179 -78 361 -160 405 -182 44 -22 149 -71 233 -107 84 -37 219 -99 300 -138 81 -39 230 -108 332 -153 411 -184 503 -226 680 -309 102 -48 219 -101 260 -117 41 -17 152 -66 245 -109 162 -75 253 -116 508 -231 61 -27 186 -86 277 -129 91 -43 188 -88 215 -100 122 -54 309 -136 410 -180 61 -26 139 -62 175 -80 59 -30 245 -116 520 -240 385 -174 475 -216 561 -255 53 -25 127 -57 165 -73 38 -15 122 -53 186 -83 l117 -54 1 -13452 0 -13453 -9520 0 -9520 0 0 17840 c0 9812 3 17840 6 17840 3 0 38 -15 77 -34z"
       id="path3464" />
    <path
       d="M35600 73795 l0 -1825 445 0 445 0 0 1825 0 1825 -445 0 -445 0 0 -1825z m880 0 l0 -1815 -435 0 -435 0 0 1815 0 1815 435 0 435 0 0 -1815z"
       id="path3466" />
    <path
       d="M48840 73795 l0 -1825 445 0 445 0 0 1825 0 1825 -445 0 -445 0 0 -1825z m880 0 l0 -1815 -435 0 -435 0 0 1815 0 1815 435 0 435 0 0 -1815z"
       id="path3468" />
    <path
       d="M43345 70424 c-80 -19 -106 -28 -116 -40 -5 -7 -23 -15 -38 -19 -31 -7 -127 -100 -163 -160 -75 -122 -93 -265 -49 -385 13 -36 30 -72 38 -81 7 -8 13 -20 13 -25 0 -20 113 -134 153 -154 23 -11 49 -25 57 -29 72 -40 298 -40 370 0 8 4 33 18 55 29 52 28 98 73 140 136 128 193 106 430 -57 601 -33 33 -71 64 -86 68 -15 4 -34 12 -42 19 -8 7 -31 19 -50 25 -37 13 -192 23 -225 15z m215 -35 c19 -7 42 -18 50 -25 8 -7 27 -15 42 -19 39 -10 140 -120 172 -188 35 -75 50 -156 42 -236 -6 -67 -30 -145 -53 -172 -7 -8 -13 -20 -13 -25 0 -21 -99 -120 -141 -142 -24 -12 -51 -27 -59 -31 -70 -40 -279 -40 -350 0 -8 4 -34 18 -57 29 -92 46 -193 197 -214 320 -22 125 28 266 132 375 36 37 73 66 89 70 16 3 34 12 39 19 10 12 37 21 116 40 32 8 167 -2 205 -15z"
       id="path3470" />
    <path
       d="M37855 70154 c-60 -12 -137 -39 -146 -51 -6 -7 -17 -13 -23 -13 -13 0 -112 -94 -142 -136 -36 -48 -84 -199 -84 -260 0 -77 48 -209 105 -289 26 -36 50 -65 55 -65 4 0 24 -13 44 -29 100 -79 292 -104 428 -55 82 30 111 49 175 114 96 98 126 184 121 344 -3 109 -5 116 -42 190 -64 126 -186 222 -315 246 -53 10 -137 12 -176 4z m166 -24 c124 -24 250 -120 310 -236 32 -63 34 -76 37 -178 4 -114 -15 -212 -45 -237 -7 -6 -13 -17 -13 -23 0 -13 -85 -102 -126 -132 -54 -40 -169 -74 -247 -74 -87 0 -208 37 -263 81 -20 16 -40 29 -44 29 -5 0 -28 28 -53 63 -53 75 -97 197 -97 270 0 67 39 183 84 251 33 49 115 126 134 126 5 0 15 6 21 13 9 12 86 39 146 51 39 7 103 6 156 -4z"
       id="path3472" />
    <path
       d="M40595 67705 c-171 -44 -204 -61 -322 -170 -117 -108 -160 -185 -197 -347 -32 -145 -32 -151 0 -290 36 -157 68 -213 189 -333 101 -101 112 -108 265 -171 65 -27 345 -28 410 -1 134 55 176 82 266 171 90 91 122 140 181 286 26 65 26 326 0 390 -62 150 -107 220 -195 300 -115 105 -149 123 -322 166 -116 29 -159 28 -275 -1z m265 -19 c173 -43 207 -61 322 -166 68 -62 107 -113 142 -185 59 -122 61 -130 61 -290 0 -162 -1 -166 -68 -305 -43 -90 -187 -234 -277 -277 -139 -67 -143 -68 -305 -68 -160 0 -152 -2 -300 64 -71 31 -235 186 -280 265 -29 50 -84 255 -85 314 0 50 50 263 72 302 35 64 75 115 141 175 118 109 151 126 322 170 115 29 140 29 255 1z"
       id="path3474" />
    <path
       d="M40630 64745 c-171 -24 -367 -101 -520 -205 -76 -51 -217 -185 -265 -249 -98 -135 -179 -307 -225 -483 -28 -105 -31 -131 -31 -267 0 -156 17 -250 73 -415 68 -200 211 -398 398 -551 122 -100 273 -173 440 -216 85 -22 116 -24 305 -24 189 0 220 2 305 24 400 102 739 430 855 826 14 50 34 148 42 219 14 110 15 145 4 245 -17 162 -52 285 -121 426 -150 306 -384 510 -709 621 -175 59 -358 75 -551 49z m327 -20 c125 -16 280 -65 390 -122 240 -126 411 -300 527 -538 65 -131 100 -258 117 -416 11 -100 10 -135 -4 -245 -29 -237 -92 -400 -219 -569 -175 -233 -403 -389 -668 -456 -85 -21 -117 -24 -295 -24 -178 0 -210 3 -295 24 -167 43 -318 116 -440 216 -184 150 -323 340 -388 531 -57 165 -73 259 -72 417 0 141 2 161 35 281 61 228 170 421 322 567 143 138 284 223 473 286 176 58 332 73 517 48z"
       id="path3476" />
    <path
       d="M35600 54915 l0 -1825 445 0 445 0 0 1825 0 1825 -445 0 -445 0 0 -1825z m880 0 l0 -1815 -435 0 -435 0 0 1815 0 1815 435 0 435 0 0 -1815z"
       id="path3478" />
    <path
       d="M48840 54915 l0 -1825 445 0 445 0 0 1825 0 1825 -445 0 -445 0 0 -1825z m880 0 l0 -1815 -435 0 -435 0 0 1815 0 1815 435 0 435 0 0 -1815z"
       id="path3480" />
    <path
       d="M71974 86585 c-12 -8 -79 -41 -150 -73 -304 -140 -445 -206 -539 -252 -55 -26 -208 -98 -340 -160 -132 -61 -283 -132 -335 -159 -52 -27 -126 -61 -165 -76 -38 -15 -113 -49 -165 -75 -52 -26 -223 -107 -380 -179 -157 -73 -330 -154 -385 -181 -55 -27 -152 -72 -215 -101 -63 -28 -206 -96 -318 -151 -111 -54 -224 -107 -250 -117 -26 -11 -132 -60 -237 -111 -104 -50 -233 -110 -285 -132 -52 -22 -215 -98 -362 -169 -147 -71 -270 -129 -273 -129 -2 0 -85 -39 -182 -86 -98 -47 -207 -99 -243 -116 -36 -16 -81 -38 -100 -48 -20 -11 -56 -28 -82 -39 l-46 -19 -42 86 c-23 48 -54 114 -70 147 -15 33 -60 126 -99 206 -39 80 -71 150 -71 154 0 4 -29 66 -64 139 -92 190 -144 300 -186 396 -21 47 -56 122 -79 167 -55 111 -130 270 -148 316 -8 20 -17 37 -19 37 -6 0 -91 -39 -199 -91 -138 -66 -302 -143 -485 -229 -185 -86 -400 -188 -720 -340 -129 -62 -365 -173 -525 -247 -159 -74 -326 -152 -370 -174 -44 -21 -143 -67 -220 -103 -124 -56 -417 -194 -635 -299 -41 -19 -101 -47 -133 -61 -69 -30 -71 -13 23 -210 37 -78 70 -153 73 -167 4 -14 18 -42 31 -62 14 -20 39 -69 56 -109 18 -40 49 -109 70 -153 21 -44 57 -120 80 -170 23 -49 52 -110 65 -135 12 -25 40 -85 61 -135 21 -49 49 -105 61 -124 13 -19 26 -46 30 -60 3 -14 38 -92 78 -172 90 -180 93 -189 67 -189 -11 0 -25 -7 -32 -15 -7 -8 -18 -15 -24 -15 -6 0 -63 -24 -126 -54 -63 -30 -158 -74 -210 -97 -221 -97 -383 -169 -505 -227 -297 -139 -449 -208 -610 -277 -93 -39 -224 -99 -290 -132 -66 -33 -131 -64 -145 -68 -31 -9 -293 -128 -530 -240 -96 -45 -220 -103 -275 -128 -96 -44 -151 -69 -440 -197 -71 -31 -199 -89 -283 -129 -84 -39 -154 -71 -157 -71 -2 0 -82 -36 -177 -81 -95 -44 -260 -119 -367 -166 -106 -46 -264 -118 -350 -160 -86 -41 -284 -131 -441 -200 -157 -68 -359 -160 -450 -202 -91 -43 -210 -99 -265 -124 -55 -25 -161 -73 -235 -107 -175 -81 -539 -246 -705 -320 -71 -32 -218 -99 -325 -150 -107 -50 -229 -105 -270 -121 -41 -17 -151 -66 -245 -109 -163 -75 -256 -117 -505 -230 -63 -28 -189 -87 -280 -130 -91 -43 -187 -88 -215 -100 -122 -54 -309 -136 -410 -180 -60 -26 -139 -62 -175 -80 -59 -30 -248 -117 -520 -240 -58 -26 -166 -76 -240 -110 -74 -34 -169 -77 -210 -95 -105 -45 -420 -188 -512 -232 l-78 -37 0 -13458 0 -13458 9530 0 9530 0 0 17855 c0 9820 -3 17855 -8 17855 -4 0 -17 -7 -28 -15z m26 -17845 l0 -17840 -9520 0 -9520 0 0 13450 0 13451 83 39 c110 51 404 185 497 225 41 18 136 61 210 95 74 34 182 84 240 110 272 123 461 210 520 240 36 18 115 54 175 80 101 44 288 126 410 180 28 12 124 57 215 100 91 43 216 102 278 129 254 115 345 156 507 231 94 43 204 92 245 109 41 16 163 71 270 121 107 51 254 118 325 150 166 74 530 239 705 320 74 34 180 82 235 107 55 25 174 81 265 124 91 42 293 134 450 202 157 69 355 159 441 200 86 42 244 114 350 160 107 47 272 122 367 166 95 45 175 81 177 81 3 0 73 32 157 71 84 40 212 98 283 129 289 128 344 153 440 197 55 25 179 83 275 128 237 112 499 231 530 240 14 4 79 35 145 68 66 33 197 93 290 132 161 69 313 138 610 277 122 58 284 130 505 227 52 23 147 67 210 97 63 30 120 54 126 54 6 0 17 7 24 15 7 8 21 15 31 15 10 0 21 5 24 11 4 6 -29 83 -72 172 -44 89 -83 174 -86 188 -4 14 -17 41 -30 60 -12 19 -40 75 -61 124 -21 50 -49 110 -61 135 -13 25 -42 86 -65 135 -23 50 -59 126 -80 170 -21 44 -52 113 -70 153 -17 40 -42 89 -56 109 -13 20 -27 48 -31 62 -3 14 -37 90 -74 168 -37 79 -69 150 -71 160 -3 19 2 22 147 90 55 25 195 91 310 146 116 55 273 128 350 163 77 36 176 82 220 103 44 22 211 100 370 174 160 74 396 185 525 247 320 152 535 254 720 340 183 86 347 163 485 229 55 27 122 58 148 70 l48 21 18 -42 c26 -61 92 -201 141 -299 23 -46 59 -122 80 -169 42 -96 94 -206 186 -396 35 -73 64 -135 64 -139 0 -4 32 -74 71 -154 39 -80 84 -173 99 -206 82 -173 113 -240 116 -244 2 -2 43 16 91 39 48 23 115 55 148 70 33 16 140 67 238 114 97 47 180 86 182 86 3 0 126 58 273 129 147 71 310 147 362 169 52 22 181 82 285 132 105 51 211 100 237 111 26 10 139 63 250 117 112 55 255 123 318 151 63 29 160 74 215 101 55 27 228 108 385 181 157 72 328 153 380 179 52 26 127 60 165 75 39 15 113 49 165 76 52 27 203 98 335 159 132 62 285 134 340 160 96 47 266 126 540 252 72 33 134 64 140 69 5 5 15 9 22 9 11 0 13 -3209 13 -17840z"
       id="path3482" />
    <path
       d="M55330 73795 l0 -1825 445 0 445 0 0 1825 0 1825 -445 0 -445 0 0 -1825z m880 0 l0 -1815 -435 0 -435 0 0 1815 0 1815 435 0 435 0 0 -1815z"
       id="path3484" />
    <path
       d="M68570 73795 l0 -1825 445 0 445 0 0 1825 0 1825 -445 0 -445 0 0 -1825z m880 0 l0 -1815 -435 0 -435 0 0 1815 0 1815 435 0 435 0 0 -1815z"
       id="path3486" />
    <path
       d="M61532 70419 c-23 -4 -54 -15 -70 -23 -15 -8 -43 -22 -62 -31 -77 -35 -168 -148 -209 -259 -31 -82 -30 -207 0 -290 12 -34 28 -68 36 -77 7 -8 13 -20 13 -25 0 -15 101 -125 124 -135 12 -5 35 -18 51 -29 38 -25 39 -25 105 -40 55 -12 187 -9 260 6 56 11 151 76 206 141 76 89 109 181 109 303 0 136 -34 225 -121 319 -115 124 -272 174 -442 140z m187 -19 c144 -27 283 -143 331 -276 36 -101 35 -232 -3 -329 -46 -119 -169 -233 -277 -258 -68 -16 -183 -19 -239 -7 -67 15 -68 15 -106 40 -16 11 -39 24 -51 29 -34 15 -111 110 -145 180 -55 112 -55 249 -1 366 36 76 120 170 177 197 22 11 52 26 67 34 57 31 160 41 247 24z"
       id="path3488" />
    <path
       d="M67022 70150 c-71 -15 -166 -68 -220 -123 -112 -113 -157 -248 -135 -400 33 -233 224 -397 462 -397 98 0 196 29 258 76 17 13 36 24 42 24 16 0 93 108 117 165 36 84 44 119 44 193 0 138 -52 262 -148 349 -31 29 -61 53 -66 53 -5 0 -17 6 -25 13 -51 43 -230 68 -329 47z m258 -36 c25 -10 52 -24 61 -31 8 -7 19 -13 24 -13 15 0 114 -91 129 -118 59 -110 75 -164 76 -261 0 -76 -8 -110 -43 -191 -22 -52 -93 -150 -108 -150 -6 0 -25 -11 -42 -24 -18 -14 -63 -36 -101 -50 -96 -36 -198 -36 -298 1 -127 47 -202 116 -261 240 -30 64 -32 75 -32 178 0 105 2 113 34 180 63 128 186 228 313 255 61 13 195 4 248 -16z"
       id="path3490" />
    <path
       d="M64190 67705 c-173 -42 -207 -60 -327 -170 -117 -108 -160 -185 -197 -347 -32 -145 -32 -151 0 -290 36 -157 68 -213 189 -333 101 -101 112 -108 265 -171 65 -27 345 -28 410 -1 127 52 177 84 265 168 91 88 113 123 182 289 26 65 26 325 0 390 -66 159 -82 184 -168 270 -133 132 -163 150 -349 196 -116 29 -149 29 -270 -1z m260 -19 c186 -46 216 -64 349 -196 63 -63 93 -101 112 -145 66 -147 64 -140 64 -300 0 -162 1 -157 -68 -308 -41 -90 -180 -227 -277 -274 -138 -67 -143 -68 -305 -68 -160 0 -152 -2 -300 64 -71 31 -235 186 -280 265 -29 50 -84 255 -85 314 0 50 50 263 72 302 35 64 75 115 141 175 120 110 154 128 327 170 120 29 135 29 250 1z"
       id="path3492" />
    <path
       d="M64079 64745 c-52 -8 -122 -23 -155 -35 -32 -12 -75 -26 -94 -31 -51 -14 -185 -84 -255 -132 -192 -133 -349 -327 -442 -547 -75 -177 -105 -385 -84 -582 35 -317 144 -536 386 -771 146 -142 297 -227 505 -285 90 -26 106 -27 320 -26 211 0 230 1 315 26 179 51 317 123 455 238 119 99 235 242 303 375 42 84 107 255 107 284 0 14 7 51 15 81 10 36 15 104 15 195 0 213 -30 337 -136 550 -100 202 -193 316 -359 435 -266 192 -572 269 -896 225z m331 -19 c188 -24 389 -107 555 -226 163 -118 260 -233 354 -425 101 -202 131 -330 131 -540 0 -91 -5 -159 -15 -195 -8 -30 -15 -67 -15 -81 0 -27 -65 -200 -102 -274 -12 -22 -42 -71 -69 -110 -170 -250 -392 -410 -684 -493 -84 -24 -105 -26 -305 -26 -203 -1 -220 1 -310 26 -207 58 -358 143 -505 285 -238 230 -342 439 -376 756 -39 363 92 714 366 980 108 106 290 222 395 252 25 7 72 23 104 35 65 23 217 47 311 48 33 1 107 -5 165 -12z"
       id="path3494" />
    <path
       d="M55330 54915 l0 -1825 445 0 445 0 0 1825 0 1825 -445 0 -445 0 0 -1825z m880 0 l0 -1815 -435 0 -435 0 0 1815 0 1815 435 0 435 0 0 -1815z"
       id="path3496" />
    <path
       d="M68570 54915 l0 -1825 445 0 445 0 0 1825 0 1825 -445 0 -445 0 0 -1825z m880 0 l0 -1815 -435 0 -435 0 0 1815 0 1815 435 0 435 0 0 -1815z"
       id="path3498" />
    <path
       d="M9980 85305 l0 -1085 -920 0 -920 0 0 -1850 0 -1850 920 0 920 0 0 -7590 0 -7590 -920 0 -920 0 0 -1850 0 -1850 920 0 920 0 0 -1085 0 -1085 10320 0 10320 0 0 1085 0 1085 920 0 920 0 0 1850 0 1850 -920 0 -920 0 0 7590 0 7590 920 0 920 0 0 1850 0 1850 -920 0 -920 0 0 1085 0 1085 -10320 0 -10320 0 0 -1085z m20630 -10 l0 -1085 920 0 920 0 0 -1840 0 -1840 -920 0 -920 0 0 -7600 0 -7600 920 0 920 0 0 -1840 0 -1840 -920 0 -920 0 0 -1085 0 -1085 -10310 0 -10310 0 0 1085 0 1085 -920 0 -920 0 0 1840 0 1840 920 0 920 0 0 7600 0 7600 -920 0 -920 0 0 1840 0 1840 920 0 920 0 0 1085 0 1085 10310 0 10310 0 0 -1085z"
       id="path3500" />
    <path
       d="M14150 84165 c-72 -23 -140 -82 -175 -150 -27 -52 -30 -68 -30 -149 0 -109 15 -147 90 -221 61 -61 123 -85 220 -85 326 0 423 450 128 590 -61 29 -169 36 -233 15z m234 -29 c132 -65 198 -228 150 -369 -19 -57 -81 -129 -142 -165 -42 -24 -56 -27 -142 -27 -114 0 -153 17 -223 95 -58 65 -81 129 -75 218 5 82 28 133 88 193 91 92 226 113 344 55z"
       id="path3502" />
    <path
       d="M22850 84151 c-119 -38 -200 -132 -219 -250 -21 -136 43 -265 164 -329 43 -23 62 -27 140 -27 104 0 162 22 225 85 61 61 85 122 85 220 0 70 -5 94 -25 135 -53 108 -147 168 -270 172 -41 1 -86 -1 -100 -6z m217 -29 c65 -34 110 -78 140 -140 23 -47 28 -70 28 -132 0 -122 -56 -213 -168 -272 -61 -32 -193 -33 -258 0 -106 52 -171 155 -171 271 0 129 76 239 198 286 57 21 177 15 231 -13z"
       id="path3504" />
    <path
       d="M27575 68136 c-140 -44 -222 -165 -213 -319 5 -90 35 -153 101 -213 90 -80 223 -99 337 -48 118 53 186 167 178 300 -6 89 -36 151 -104 213 -81 74 -196 100 -299 67z m229 -30 c108 -53 172 -165 163 -287 -14 -216 -244 -346 -437 -249 -56 28 -125 109 -145 169 -22 66 -17 169 10 226 29 60 103 129 166 154 74 29 167 24 243 -13z"
       id="path3506" />
    <path
       d="M12613 67803 c-60 -21 -137 -94 -169 -159 -63 -128 -19 -300 99 -385 153 -111 376 -56 465 116 22 42 26 63 27 135 0 70 -4 93 -24 134 -32 65 -90 122 -154 152 -62 28 -175 32 -244 7z m221 -10 c66 -24 129 -82 163 -151 36 -74 39 -182 6 -253 -27 -60 -86 -119 -149 -150 -72 -35 -189 -34 -260 3 -145 76 -207 246 -142 390 68 147 230 215 382 161z"
       id="path3508" />
    <path
       d="M9850 57225 l0 -1085 -925 0 -925 0 0 -1850 0 -1850 925 0 925 0 0 -7590 0 -7590 -925 0 -925 0 2 -1847 3 -1848 923 -3 922 -2 0 -3950 0 -3950 10315 0 10315 0 0 3950 0 3950 923 2 922 3 3 1848 2 1847 -925 0 -925 0 0 7590 0 7590 923 2 922 3 3 1848 2 1847 -925 0 -925 0 0 1085 0 1085 -10315 0 -10315 0 0 -1085z m20622 -7 l3 -1083 923 -3 922 -2 0 -1840 0 -1840 -925 0 -925 0 2 -7597 3 -7598 923 -3 922 -2 0 -1840 0 -1840 -925 0 -925 0 0 -3950 0 -3950 -10305 0 -10305 0 0 3950 0 3950 -925 0 -925 0 0 1840 0 1840 923 2 922 3 3 7598 2 7597 -925 0 -925 0 0 1840 0 1840 923 2 922 3 3 1083 2 1082 10305 0 10305 0 2 -1082z"
       id="path3510" />
    <path
       d="M11180 53055 l0 -775 775 0 775 0 0 775 0 775 -775 0 -775 0 0 -775z m1540 0 l0 -765 -765 0 -765 0 0 765 0 765 765 0 765 0 0 -765z"
       id="path3512" />
    <path
       d="M27790 53055 l0 -775 775 0 775 0 0 775 0 775 -775 0 -775 0 0 -775z m1540 0 l0 -765 -765 0 -765 0 0 765 0 765 765 0 765 0 0 -765z"
       id="path3514" />
    <path
       d="M11180 48800 l0 -770 775 0 775 0 0 770 0 770 -775 0 -775 0 0 -770z m1540 0 l0 -760 -765 0 -765 0 0 760 0 760 765 0 765 0 0 -760z"
       id="path3516" />
    <path
       d="M27790 48800 l0 -770 775 0 775 0 0 770 0 770 -775 0 -775 0 0 -770z m1540 0 l0 -760 -765 0 -765 0 0 760 0 760 765 0 765 0 0 -760z"
       id="path3518" />
    <path
       d="M27790 39085 l0 -775 775 0 775 0 0 775 0 775 -775 0 -775 0 0 -775z m1540 0 l0 -765 -765 0 -765 0 0 765 0 765 765 0 765 0 0 -765z"
       id="path3520" />
    <path
       d="M11180 39075 l0 -775 775 0 775 0 0 775 0 775 -775 0 -775 0 0 -775z m1540 0 l0 -765 -765 0 -765 0 0 765 0 765 765 0 765 0 0 -765z"
       id="path3522" />
    <path
       d="M16575 30041 c-56 -9 -131 -48 -170 -87 -128 -128 -115 -352 27 -464 159 -126 396 -69 480 115 32 70 32 190 0 258 -59 124 -204 200 -337 178z m172 -32 c58 -25 120 -83 151 -143 37 -73 38 -189 2 -261 -32 -64 -84 -115 -146 -146 -71 -35 -188 -34 -260 3 -145 76 -207 246 -141 390 70 155 240 222 394 157z"
       id="path3524" />
    <path
       d="M23642 30039 c-96 -19 -175 -79 -224 -171 -19 -36 -23 -58 -23 -133 0 -78 4 -97 27 -140 121 -228 438 -232 555 -6 28 54 33 73 33 135 0 94 -21 154 -76 215 -74 82 -187 121 -292 100z m184 -34 c109 -48 174 -150 173 -270 0 -120 -60 -220 -163 -270 -151 -74 -326 -17 -401 131 -26 51 -30 70 -30 139 1 67 5 88 27 131 77 148 243 206 394 139z"
       id="path3526" />
    <path
       d="M27790 27850 l0 -770 775 0 775 0 0 770 0 770 -775 0 -775 0 0 -770z m1540 0 l0 -760 -765 0 -765 0 0 760 0 760 765 0 765 0 0 -760z"
       id="path3528" />
    <path
       d="M11180 27840 l0 -770 775 0 775 0 0 770 0 770 -775 0 -775 0 0 -770z m1540 0 l0 -760 -765 0 -765 0 0 760 0 760 765 0 765 0 0 -760z"
       id="path3530" />
    <path
       d="M8330 17155 l0 -7545 16920 0 16920 0 0 7545 0 7545 -16920 0 -16920 0 0 -7545z m33830 0 l0 -7535 -16910 0 -16910 0 0 7535 0 7535 16910 0 16910 0 0 -7535z"
       id="path3532" />
    <path
       d="M13970 17155 l0 -1825 445 0 445 0 0 1825 0 1825 -445 0 -445 0 0 -1825z m880 0 l0 -1815 -435 0 -435 0 0 1815 0 1815 435 0 435 0 0 -1815z"
       id="path3534" />
    <path
       d="M35640 17155 l0 -1825 445 0 445 0 0 1825 0 1825 -445 0 -445 0 0 -1825z m880 0 l0 -1815 -435 0 -435 0 0 1815 0 1815 435 0 435 0 0 -1815z"
       id="path3536" />
  </g>
</svg>
